<mxfile modified="2019-12-26T14:34:40.154Z" host="www.draw.io" agent="Mozilla/5.0 (Windows NT 6.1; WOW64) AppleWebKit/537.36 (KHTML, like Gecko) Chrome/79.0.3945.88 Safari/537.36" etag="98qrKMvT__vjJimawXw5" version="12.4.3" type="github" pages="1">
  <diagram id="0iBGP5u3g9o4V_hH5OBv" name="Page-1">
    <mxGraphModel dx="1008" dy="422" grid="0" gridSize="10" guides="1" tooltips="1" connect="1" arrows="1" fold="1" page="1" pageScale="1" pageWidth="1169" pageHeight="1654" math="0" shadow="0">
      <root>
        <mxCell id="0"/>
        <mxCell id="1" parent="0"/>
        <mxCell id="cmBnIo1Vy9P95I6EEXKT-17" value="" style="rounded=1;whiteSpace=wrap;html=1;dashed=1;" parent="1" vertex="1">
          <mxGeometry x="574" y="80" width="166" height="465" as="geometry"/>
        </mxCell>
        <mxCell id="cmBnIo1Vy9P95I6EEXKT-16" value="" style="rounded=1;whiteSpace=wrap;html=1;dashed=1;" parent="1" vertex="1">
          <mxGeometry x="384" y="81" width="148" height="463" as="geometry"/>
        </mxCell>
        <mxCell id="cmBnIo1Vy9P95I6EEXKT-11" value="" style="edgeStyle=orthogonalEdgeStyle;rounded=0;orthogonalLoop=1;jettySize=auto;html=1;" parent="1" source="cmBnIo1Vy9P95I6EEXKT-1" edge="1">
          <mxGeometry relative="1" as="geometry">
            <mxPoint x="455" y="338.5" as="targetPoint"/>
          </mxGeometry>
        </mxCell>
        <mxCell id="cmBnIo1Vy9P95I6EEXKT-15" style="edgeStyle=orthogonalEdgeStyle;rounded=0;orthogonalLoop=1;jettySize=auto;html=1;exitX=0.5;exitY=1;exitDx=0;exitDy=0;" parent="1" source="cmBnIo1Vy9P95I6EEXKT-1" edge="1">
          <mxGeometry relative="1" as="geometry">
            <mxPoint x="455" y="412" as="targetPoint"/>
          </mxGeometry>
        </mxCell>
        <mxCell id="cmBnIo1Vy9P95I6EEXKT-1" value="nginx&lt;br&gt;haproxy&lt;br&gt;&lt;b&gt;日志导出&lt;br&gt;共计2台&lt;/b&gt;&lt;br&gt;&lt;br&gt;39.135.1.146&lt;br&gt;39.135.1.147" style="shape=image;html=1;verticalAlign=top;verticalLabelPosition=bottom;labelBackgroundColor=#ffffff;imageAspect=0;aspect=fixed;image=https://cdn4.iconfinder.com/data/icons/logos-brands-5/24/nginx-128.png" parent="1" vertex="1">
          <mxGeometry x="412.5" y="205" width="85" height="85" as="geometry"/>
        </mxCell>
        <mxCell id="cmBnIo1Vy9P95I6EEXKT-14" style="edgeStyle=orthogonalEdgeStyle;rounded=0;orthogonalLoop=1;jettySize=auto;html=1;exitX=0.5;exitY=1;exitDx=0;exitDy=0;entryX=0.25;entryY=0;entryDx=0;entryDy=0;" parent="1" source="cmBnIo1Vy9P95I6EEXKT-2" target="cmBnIo1Vy9P95I6EEXKT-9" edge="1">
          <mxGeometry relative="1" as="geometry"/>
        </mxCell>
        <mxCell id="cmBnIo1Vy9P95I6EEXKT-2" value="nginx&lt;br&gt;haproxy&lt;br&gt;&lt;b&gt;opentsdb&lt;br&gt;共计2台&lt;br&gt;&lt;/b&gt;&lt;br&gt;39.135.1.146&lt;br&gt;39.135.1.147" style="shape=image;html=1;verticalAlign=top;verticalLabelPosition=bottom;labelBackgroundColor=#ffffff;imageAspect=0;aspect=fixed;image=https://cdn4.iconfinder.com/data/icons/logos-brands-5/24/nginx-128.png" parent="1" vertex="1">
          <mxGeometry x="608" y="201" width="80" height="80" as="geometry"/>
        </mxCell>
        <mxCell id="cmBnIo1Vy9P95I6EEXKT-7" style="edgeStyle=orthogonalEdgeStyle;rounded=0;orthogonalLoop=1;jettySize=auto;html=1;exitX=0.5;exitY=1;exitDx=0;exitDy=0;entryX=0.5;entryY=0;entryDx=0;entryDy=0;" parent="1" source="cmBnIo1Vy9P95I6EEXKT-4" target="cmBnIo1Vy9P95I6EEXKT-2" edge="1">
          <mxGeometry relative="1" as="geometry"/>
        </mxCell>
        <mxCell id="cmBnIo1Vy9P95I6EEXKT-4" value="&lt;font style=&quot;font-size: 14px&quot;&gt;&lt;b&gt;vip: &lt;br&gt;38.135.1.137&lt;/b&gt;&lt;/font&gt;" style="rounded=1;whiteSpace=wrap;html=1;fillColor=#e1d5e7;strokeColor=#9673a6;" parent="1" vertex="1">
          <mxGeometry x="588" y="113" width="120" height="40" as="geometry"/>
        </mxCell>
        <mxCell id="cmBnIo1Vy9P95I6EEXKT-8" value="实时日志Tomcat&lt;br&gt;39.135.1.155&lt;br&gt;39.135.1.156" style="aspect=fixed;perimeter=ellipsePerimeter;html=1;align=center;shadow=0;dashed=0;spacingTop=3;image;image=img/lib/active_directory/server_farm.svg;" parent="1" vertex="1">
          <mxGeometry x="431.5" y="408.5" width="66" height="66" as="geometry"/>
        </mxCell>
        <mxCell id="cmBnIo1Vy9P95I6EEXKT-9" value="指标存储服务器&lt;br&gt;&lt;span style=&quot;background-color: rgb(248 , 249 , 250)&quot;&gt;39.135.1.150-39.135.1.153&lt;/span&gt;&lt;br style=&quot;background-color: rgb(248 , 249 , 250)&quot;&gt;&lt;span style=&quot;background-color: rgb(248 , 249 , 250)&quot;&gt;39.135.1.167-39.135.1.172&lt;/span&gt;" style="aspect=fixed;perimeter=ellipsePerimeter;html=1;align=center;shadow=0;dashed=0;spacingTop=3;image;image=img/lib/active_directory/server_farm.svg;" parent="1" vertex="1">
          <mxGeometry x="625" y="410" width="63" height="63" as="geometry"/>
        </mxCell>
        <mxCell id="cmBnIo1Vy9P95I6EEXKT-18" value="&lt;b&gt;上海日志订阅&lt;br&gt;日志导出&lt;/b&gt;" style="text;html=1;strokeColor=none;fillColor=none;align=center;verticalAlign=middle;whiteSpace=wrap;rounded=0;dashed=1;" parent="1" vertex="1">
          <mxGeometry x="422" y="557" width="91" height="20" as="geometry"/>
        </mxCell>
        <mxCell id="cmBnIo1Vy9P95I6EEXKT-21" value="&lt;b&gt;opentsdb&lt;br&gt;指标查询&lt;/b&gt;" style="text;html=1;strokeColor=none;fillColor=none;align=center;verticalAlign=middle;whiteSpace=wrap;rounded=0;dashed=1;" parent="1" vertex="1">
          <mxGeometry x="617" y="554" width="91" height="20" as="geometry"/>
        </mxCell>
        <mxCell id="CActt4GfxvSZO8fPX1bQ-2" style="edgeStyle=orthogonalEdgeStyle;rounded=0;orthogonalLoop=1;jettySize=auto;html=1;exitX=0.5;exitY=1;exitDx=0;exitDy=0;" edge="1" parent="1" source="CActt4GfxvSZO8fPX1bQ-1" target="cmBnIo1Vy9P95I6EEXKT-1">
          <mxGeometry relative="1" as="geometry"/>
        </mxCell>
        <mxCell id="CActt4GfxvSZO8fPX1bQ-1" value="&lt;font style=&quot;font-size: 14px&quot;&gt;&lt;b&gt;vip: &lt;br&gt;38.135.1.139&lt;/b&gt;&lt;/font&gt;" style="rounded=1;whiteSpace=wrap;html=1;fillColor=#e1d5e7;strokeColor=#9673a6;" vertex="1" parent="1">
          <mxGeometry x="395" y="113" width="120" height="40" as="geometry"/>
        </mxCell>
        <mxCell id="CActt4GfxvSZO8fPX1bQ-11" value="" style="rounded=1;whiteSpace=wrap;html=1;dashed=1;" vertex="1" parent="1">
          <mxGeometry x="206" y="80" width="148" height="463" as="geometry"/>
        </mxCell>
        <mxCell id="CActt4GfxvSZO8fPX1bQ-12" value="" style="edgeStyle=orthogonalEdgeStyle;rounded=0;orthogonalLoop=1;jettySize=auto;html=1;" edge="1" parent="1" source="CActt4GfxvSZO8fPX1bQ-14">
          <mxGeometry relative="1" as="geometry">
            <mxPoint x="277" y="337.5" as="targetPoint"/>
          </mxGeometry>
        </mxCell>
        <mxCell id="CActt4GfxvSZO8fPX1bQ-13" style="edgeStyle=orthogonalEdgeStyle;rounded=0;orthogonalLoop=1;jettySize=auto;html=1;exitX=0.5;exitY=1;exitDx=0;exitDy=0;" edge="1" parent="1" source="CActt4GfxvSZO8fPX1bQ-14">
          <mxGeometry relative="1" as="geometry">
            <mxPoint x="277" y="411" as="targetPoint"/>
          </mxGeometry>
        </mxCell>
        <mxCell id="CActt4GfxvSZO8fPX1bQ-14" value="nginx&lt;br&gt;haproxy&lt;br&gt;&lt;b&gt;日志导出&lt;br&gt;共计1台&lt;/b&gt;&lt;br&gt;&lt;br&gt;&lt;span style=&quot;font-size: 14px ; white-space: normal ; background-color: rgb(248 , 249 , 250)&quot;&gt;38.134.135.61&lt;/span&gt;" style="shape=image;html=1;verticalAlign=top;verticalLabelPosition=bottom;labelBackgroundColor=#ffffff;imageAspect=0;aspect=fixed;image=https://cdn4.iconfinder.com/data/icons/logos-brands-5/24/nginx-128.png" vertex="1" parent="1">
          <mxGeometry x="234.5" y="204" width="85" height="85" as="geometry"/>
        </mxCell>
        <mxCell id="CActt4GfxvSZO8fPX1bQ-15" value="实时日志Tomcat&lt;br&gt;&lt;span style=&quot;font-size: 14px ; white-space: normal ; background-color: rgb(248 , 249 , 250)&quot;&gt;38.134.135.61&lt;br&gt;&lt;/span&gt;&lt;span style=&quot;font-size: 14px ; white-space: normal ; background-color: rgb(248 , 249 , 250)&quot;&gt;38.134.135.64&lt;/span&gt;&lt;span style=&quot;font-size: 14px ; white-space: normal ; background-color: rgb(248 , 249 , 250)&quot;&gt;&lt;br&gt;&lt;/span&gt;" style="aspect=fixed;perimeter=ellipsePerimeter;html=1;align=center;shadow=0;dashed=0;spacingTop=3;image;image=img/lib/active_directory/server_farm.svg;" vertex="1" parent="1">
          <mxGeometry x="253.5" y="407.5" width="66" height="66" as="geometry"/>
        </mxCell>
        <mxCell id="CActt4GfxvSZO8fPX1bQ-16" value="&lt;b&gt;北京日志订阅&lt;br&gt;日志导出&lt;/b&gt;" style="text;html=1;strokeColor=none;fillColor=none;align=center;verticalAlign=middle;whiteSpace=wrap;rounded=0;dashed=1;" vertex="1" parent="1">
          <mxGeometry x="242" y="557" width="81" height="20" as="geometry"/>
        </mxCell>
        <mxCell id="CActt4GfxvSZO8fPX1bQ-17" style="edgeStyle=orthogonalEdgeStyle;rounded=0;orthogonalLoop=1;jettySize=auto;html=1;exitX=0.5;exitY=1;exitDx=0;exitDy=0;" edge="1" parent="1" source="CActt4GfxvSZO8fPX1bQ-18" target="CActt4GfxvSZO8fPX1bQ-14">
          <mxGeometry relative="1" as="geometry"/>
        </mxCell>
        <mxCell id="CActt4GfxvSZO8fPX1bQ-18" value="&lt;font style=&quot;font-size: 14px&quot;&gt;&lt;b&gt;vip: &lt;br&gt;38.134.135.111&lt;/b&gt;&lt;/font&gt;" style="rounded=1;whiteSpace=wrap;html=1;fillColor=#e1d5e7;strokeColor=#9673a6;" vertex="1" parent="1">
          <mxGeometry x="217" y="112" width="120" height="40" as="geometry"/>
        </mxCell>
      </root>
    </mxGraphModel>
  </diagram>
</mxfile>
